<?xml version="1.0" encoding="UTF-8" standalone="no"?>
<svg
   width="1969.3101"
   height="42.890591"
   viewBox="0 0 1969.3101 42.890591"
   fill="none"
   version="1.1"
   id="svg12"
   sodipodi:docname="runline.svg"
   inkscape:version="1.2.1 (9c6d41e410, 2022-07-14)"
   xmlns:inkscape="http://www.inkscape.org/namespaces/inkscape"
   xmlns:sodipodi="http://sodipodi.sourceforge.net/DTD/sodipodi-0.dtd"
   xmlns="http://www.w3.org/2000/svg"
   xmlns:svg="http://www.w3.org/2000/svg">
  <defs
     id="defs16" />
  <sodipodi:namedview
     id="namedview14"
     pagecolor="#ffffff"
     bordercolor="#000000"
     borderopacity="0.25"
     inkscape:showpageshadow="2"
     inkscape:pageopacity="0.0"
     inkscape:pagecheckerboard="0"
     inkscape:deskcolor="#d1d1d1"
     showgrid="false"
     inkscape:zoom="0.99927938"
     inkscape:cx="962.19338"
     inkscape:cy="31.022355"
     inkscape:window-width="2160"
     inkscape:window-height="1330"
     inkscape:window-x="-12"
     inkscape:window-y="-12"
     inkscape:window-maximized="1"
     inkscape:current-layer="svg12" />
  <path
     d="M 25.078,34.61719 H 22.195 V 2.95313 H 2.882 V 34.61719 H 0 v -34.125 h 25.078 z m 34.008004,-15.2109 c 0,3.1406 -0.547,5.8984 -1.641,8.2734 -1.078,2.375 -2.625,4.2031 -4.641004,5.4844 -2.015,1.2812 -4.343,1.9219 -6.984,1.9219 -3.984,0 -7.203,-1.4219 -9.656,-4.2657 -2.453,-2.8593 -3.68,-6.7109 -3.68,-11.5547 v -3.5156 c 0,-3.1094 0.547,-5.8594 1.641,-8.24999 1.109,-2.40625 2.672,-4.25 4.687,-5.53125 2.016,-1.29687 4.336,-1.94531 6.961,-1.94531 2.625,0 4.938,0.63281 6.938,1.89844 2.015004,1.26562 3.570004,3.05468 4.664004,5.36719 1.093,2.3125 1.664,4.99222 1.711,8.03902 z m -2.883,-3.7032 c 0,-4.1093 -0.93,-7.32809 -2.789004,-9.65621 -1.86,-2.32813 -4.406,-3.49219 -7.641,-3.49219 -3.172,0 -5.703,1.17188 -7.594,3.51562 -1.875,2.32813 -2.812,5.58598 -2.812,9.77348 v 3.5625 c 0,4.0468 0.937,7.2578 2.812,9.6328 1.875,2.3593 4.422,3.539 7.641,3.539 3.266,0 5.812,-1.164 7.641,-3.4921 1.828004,-2.3438 2.742004,-5.6016 2.742004,-9.7735 z m 34.406,-15.2109 v 34.125 h -2.883 V 2.95313 h -14.414 l -0.797,14.10936 c -0.312,5.0469 -0.797,8.7188 -1.453,11.0156 -0.64,2.2813 -1.562,3.9375 -2.765,4.9688 -1.188,1.0156 -2.805,1.5391 -4.852,1.5703 h -1.219 v -2.4375 l 0.938,-0.0234 c 1.609,-0.0782 2.82,-0.586 3.633,-1.5235 0.812,-0.9375 1.437,-2.4531 1.875,-4.5468 0.453,-2.1094 0.804,-5.3594 1.054,-9.75 l 0.844,-15.8438 z m 20.085996,21.8672 9.703,-21.8672 h 3.399 l -13.196,28.5703 -0.843,1.6172 c -1.657,2.9531 -4.094,4.4297 -7.313,4.4297 -0.953,0 -1.687,-0.086 -2.203,-0.2578 l 0.258,-2.3438 c 0.328,0.1094 0.984,0.1641 1.968,0.1641 1.938,0 3.493,-0.9922 4.664,-2.9766 l 0.586,-1.0547 1.477,-3.0468 -12.913996,-25.1016 h 3.305 z m 42.023,-21.8672 v 34.125 h -2.906 v -15.5156 c -3.203,0.8906 -6.281,1.3359 -9.234,1.3359 -3.875,0 -6.735,-0.8359 -8.578,-2.5078 -1.844,-1.6719 -2.789,-4.2422 -2.836,-7.7109 v -9.7266 h 2.906 v 9.5625 c 0.016,2.7656 0.695,4.7813 2.039,6.0469 1.359,1.25 3.516,1.875 6.469,1.875 2.984,0 6.062,-0.4453 9.234,-1.336 V 0.49219 Z m 31.12541,0 h 2.8828 v 34.125 h -2.8828 V 5.41407 l -19.4294,29.20312 H 161.508 v -34.125 h 2.90601 v 29.1797 z m 34.1016,2.46094 h -11.6953 v 31.66406 h -2.8828 V 2.95313 h -11.6719 V 0.49219 h 26.25 z m 8.6484,12.35156 h 8.461 c 2.32809,0 4.34369,0.3906 6.04679,1.1719 1.7032,0.7656 3,1.875 3.8907,3.3281 0.9062,1.4375 1.3593,3.1406 1.3593,5.1094 0,3.0156 -1.0078,5.3906 -3.0234,7.125 -2.0156,1.7187 -4.8047,2.5781 -8.36719,2.5781 h -11.25 v -34.125 h 2.8828 z m 0,2.4609 v 14.4141 h 8.4375 c 2.64069,0 4.70319,-0.6484 6.18749,-1.9453 1.4844,-1.3125 2.2266,-3.1016 2.2266,-5.3672 0,-2.1562 -0.7188,-3.8672 -2.1562,-5.1328 -1.4376,-1.2813 -3.4532,-1.9375 -6.04689,-1.9688 z m 62.48439,6.211 c -0.3906,3.5937 -1.6797,6.3437 -3.8672,8.25 -2.1718,1.9062 -5.0703,2.8594 -8.69529,2.8594 -2.53125,0 -4.77343,-0.6329 -6.72656,-1.8985 -1.9375,-1.2656 -3.4375,-3.0547 -4.5,-5.3672 -1.0625,-2.3281 -1.60156,-4.9843 -1.61719,-7.9687 v -4.4297 c 0,-3.0313 0.53125,-5.7188 1.59375,-8.06251 1.0625,-2.34375 2.58594,-4.14844 4.57031,-5.41407 2,-1.28125 4.29688,-1.92187 6.89063,-1.92187 3.65625,0 6.53905,0.99219 8.64845,2.97656 2.125,1.96875 3.3594,4.69531 3.7031,8.17969 h -2.9062 c -0.7188,-5.79687 -3.8672,-8.69531 -9.44535,-8.69531 -3.09375,0 -5.5625,1.15625 -7.40625,3.46875 -1.82812,2.3125 -2.74219,5.50786 -2.74219,9.58596 v 4.1719 c 0,3.9374 0.89063,7.0781 2.67188,9.4218 1.79687,2.3438 4.21875,3.5156 7.26562,3.5156 3.01563,0 5.28909,-0.7187 6.82029,-2.1562 1.5313,-1.4531 2.4766,-3.625 2.836,-6.5156 z m 14.6953,-5.3672 h -4.6875 v 16.0078 h -2.8828 v -34.125 h 2.8828 v 15.6562 h 4.5469 l 13.1953,-15.6562 h 3.6328 l -14.0156,16.7812 15.0469,17.3438 h -3.586 z m 45.3985,-18.1172 h 2.8828 v 34.125 h -2.8828 V 5.41407 l -19.4297,29.20312 h -2.9063 v -34.125 h 2.9063 v 29.1797 z m 37.4064,31.6875 h 3.633 l -0.024,10.7109 h -2.883 v -8.2734 H 361.57 v 8.2734 h -2.8828 v -10.7109 h 2.2734 c 1.7344,-1.8125 3.1328,-4.4531 4.1953,-7.9219 1.0782,-3.4844 1.7266,-7.2968 1.9453,-11.4375 l 0.6094,-12.3281 h 18.8674 z m -22.2658,0 H 383.695 V 2.95313 h -13.219 l -0.468,9.77346 c -0.204,4.0625 -0.8052,7.8047 -1.8052,11.2265 -0.9844,3.4219 -2.2812,6.1641 -3.8906,8.2266 z m 39.4458,-13.5703 h -4.688 v 16.0078 h -2.883 v -34.125 h 2.883 v 15.6562 h 4.547 l 13.195,-15.6562 h 3.633 l -14.016,16.7812 15.047,17.3438 h -3.586 z m 34.359,3.75 9.703,-21.8672 h 3.398 l -13.195,28.5703 -0.844,1.6172 c -1.656,2.9531 -4.093,4.4297 -7.312,4.4297 -0.953,0 -1.688,-0.086 -2.203,-0.2578 l 0.258,-2.3438 c 0.328,0.1094 0.984,0.1641 1.968,0.1641 1.938,0 3.492,-0.9922 4.664,-2.9766 l 0.586,-1.0547 1.477,-3.0468 -12.914,-25.1016 h 3.305 z m 42.375,12.2578 h -2.813 v -30.75 L 468.398,7.3125 V 4.6875 L 480.023,0.375 h 0.469 z m 34.148,-14.2266 c 0,4.8125 -0.882,8.4688 -2.648,10.9688 -1.766,2.4844 -4.367,3.7266 -7.805,3.7266 -3.375,0 -5.961,-1.2188 -7.758,-3.6563 -1.797,-2.4531 -2.718,-6.0156 -2.765,-10.6875 v -6.1172 c 0,-4.7969 0.89,-8.42968 2.672,-10.89842 1.781,-2.46875 4.382,-3.70313 7.804,-3.70313 3.375,0 5.953,1.19531 7.735,3.58594 1.781,2.375 2.703,5.88281 2.765,10.52341 z m -2.812,-6.1172 c 0,-3.9062 -0.641,-6.85932 -1.922,-8.85932 -1.266,-2 -3.188,-3 -5.766,-3 -2.531,0 -4.437,0.97656 -5.718,2.92968 -1.282,1.95313 -1.938,4.83594 -1.969,8.64844 v 6.7031 c 0,3.8907 0.656,6.8672 1.969,8.9297 1.328,2.0625 3.25,3.0938 5.765,3.0938 2.5,0 4.391,-1.0078 5.672,-3.0235 1.297,-2.0156 1.953,-4.9687 1.969,-8.8593 z m 8.203,-7.2187 c 0,-2.03125 0.625,-3.71094 1.875,-5.03906 C 523.172,0.67188 524.773,0 526.711,0 c 1.937,0 3.531,0.67188 4.781,2.01563 1.266,1.32812 1.898,3.05468 1.898,5.17968 v 1.66407 c 0,2.00001 -0.625,3.67191 -1.875,5.01561 -1.234,1.3281 -2.82,1.9922 -4.757,1.9922 -1.922,0 -3.524,-0.6562 -4.805,-1.9688 -1.281,-1.3124 -1.922,-3.0468 -1.922,-5.20308 z m 2.273,1.80469 c 0,1.45311 0.399,2.64841 1.196,3.58591 0.812,0.9375 1.898,1.4063 3.258,1.4063 1.328,0 2.382,-0.4688 3.164,-1.4063 0.796,-0.9531 1.195,-2.1797 1.195,-3.67966 V 7.05469 c 0,-1.45312 -0.406,-2.64844 -1.219,-3.58594 -0.812,-0.95312 -1.875,-1.42968 -3.187,-1.42968 -1.297,0 -2.36,0.46874 -3.188,1.40624 -0.812,0.9375 -1.219,2.1875 -1.219,3.75 z m 14.907,17.39061 c 0,-2.0312 0.625,-3.7109 1.875,-5.039 1.265,-1.3282 2.859,-1.9922 4.781,-1.9922 1.922,0 3.515,0.664 4.781,1.9922 1.281,1.3124 1.922,3.0468 1.922,5.2031 v 1.664 c 0,2.0313 -0.633,3.711 -1.898,5.0391 -1.25,1.3281 -2.836,1.9922 -4.758,1.9922 -1.922,0 -3.524,-0.6563 -4.805,-1.9688 -1.266,-1.3281 -1.898,-3.0546 -1.898,-5.1796 z m 2.25,1.8281 c 0,1.4688 0.398,2.6719 1.195,3.6094 0.812,0.9375 1.898,1.4063 3.258,1.4063 1.344,0 2.406,-0.4688 3.187,-1.4063 0.797,-0.9531 1.196,-2.1953 1.196,-3.7265 v -1.711 c 0,-1.5 -0.407,-2.7031 -1.219,-3.6094 -0.797,-0.9218 -1.867,-1.3828 -3.211,-1.3828 -1.313,0 -2.375,0.461 -3.188,1.3828 -0.812,0.9219 -1.218,2.1563 -1.218,3.7032 z m -11.813,3.7032 -1.758,-1.125 16.664,-26.67191 1.758,1.125 z m 56.555,-12.6094 -16.664,-7.1016 V 9.1875 l 19.804,8.85939 v 2.2734 l -19.804,8.8828 v -2.9062 z m 24.89,0 -16.664,-7.1016 V 9.1875 l 19.805,8.85939 v 2.2734 l -19.805,8.8828 v -2.9062 z m 24.891,0 -16.664,-7.1016 V 9.1875 l 19.805,8.85939 v 2.2734 l -19.805,8.8828 v -2.9062 z m 46.5,15.4453 h -2.883 V 2.95313 h -19.312 v 31.66406 h -2.883 v -34.125 h 25.078 z m 34.008,-15.2109 c 0,3.1406 -0.547,5.8984 -1.641,8.2734 -1.078,2.375 -2.625,4.2031 -4.64,5.4844 -2.016,1.2812 -4.344,1.9219 -6.985,1.9219 -3.984,0 -7.203,-1.4219 -9.656,-4.2657 -2.453,-2.8593 -3.68,-6.7109 -3.68,-11.5547 v -3.5156 c 0,-3.1094 0.547,-5.8594 1.641,-8.24999 1.109,-2.40625 2.672,-4.25 4.687,-5.53125 2.016,-1.29687 4.336,-1.94531 6.961,-1.94531 2.625,0 4.938,0.63281 6.938,1.89844 2.015,1.26562 3.57,3.05468 4.664,5.36719 1.094,2.3125 1.664,4.99222 1.711,8.03902 z m -2.883,-3.7032 c 0,-4.1093 -0.93,-7.32809 -2.789,-9.65621 -1.859,-2.32813 -4.406,-3.49219 -7.641,-3.49219 -3.171,0 -5.703,1.17188 -7.593,3.51562 -1.875,2.32813 -2.813,5.58598 -2.813,9.77348 v 3.5625 c 0,4.0468 0.938,7.2578 2.813,9.6328 1.875,2.3593 4.422,3.539 7.64,3.539 3.266,0 5.813,-1.164 7.641,-3.4921 1.828,-2.3438 2.742,-5.6016 2.742,-9.7735 z m 34.406,-15.2109 v 34.125 h -2.883 V 2.95313 h -14.414 l -0.796,14.10936 c -0.313,5.0469 -0.797,8.7188 -1.454,11.0156 -0.64,2.2813 -1.562,3.9375 -2.765,4.9688 -1.188,1.0156 -2.805,1.5391 -4.852,1.5703 h -1.219 v -2.4375 l 0.938,-0.0234 c 1.609,-0.0782 2.82,-0.586 3.633,-1.5235 0.812,-0.9375 1.437,-2.4531 1.875,-4.5468 0.453,-2.1094 0.804,-5.3594 1.054,-9.75 l 0.844,-15.8438 z m 20.086,21.8672 9.703,-21.8672 h 3.399 l -13.195,28.5703 -0.844,1.6172 c -1.656,2.9531 -4.094,4.4297 -7.313,4.4297 -0.953,0 -1.687,-0.086 -2.203,-0.2578 l 0.258,-2.3438 c 0.328,0.1094 0.984,0.1641 1.969,0.1641 1.937,0 3.492,-0.9922 4.664,-2.9766 l 0.586,-1.0547 1.476,-3.0468 -12.914,-25.1016 h 3.305 z m 42.024,-21.8672 v 34.125 h -2.907 v -15.5156 c -3.203,0.8906 -6.281,1.3359 -9.234,1.3359 -3.875,0 -6.734,-0.8359 -8.578,-2.5078 -1.844,-1.6719 -2.789,-4.2422 -2.836,-7.7109 v -9.7266 h 2.906 v 9.5625 c 0.016,2.7656 0.696,4.7813 2.039,6.0469 1.36,1.25 3.516,1.875 6.469,1.875 2.984,0 6.063,-0.4453 9.234,-1.336 V 0.49219 Z m 31.125,0 h 2.882 v 34.125 H 839.25 V 5.41407 l -19.43,29.20312 h -2.906 v -34.125 h 2.906 v 29.1797 z m 34.101,2.46094 h -11.695 v 31.66406 h -2.883 V 2.95313 H 847.101 V 0.49219 h 26.25 z M 882,15.30469 h 8.461 c 2.328,0 4.343,0.3906 6.047,1.1719 1.703,0.7656 3,1.875 3.89,3.3281 0.906,1.4375 1.36,3.1406 1.36,5.1094 0,3.0156 -1.008,5.3906 -3.024,7.125 -2.016,1.7187 -4.805,2.5781 -8.367,2.5781 h -11.25 V 0.49219 H 882 Z m 0,2.4609 v 14.4141 h 8.437 c 2.641,0 4.703,-0.6484 6.188,-1.9453 1.484,-1.3125 2.226,-3.1016 2.226,-5.3672 0,-2.1562 -0.719,-3.8672 -2.156,-5.1328 -1.437,-1.2813 -3.453,-1.9375 -6.047,-1.9688 z m 62.484,6.211 c -0.391,3.5937 -1.68,6.3437 -3.867,8.25 -2.172,1.9062 -5.07,2.8594 -8.695,2.8594 -2.532,0 -4.774,-0.6329 -6.727,-1.8985 -1.937,-1.2656 -3.437,-3.0547 -4.5,-5.3672 -1.063,-2.3281 -1.602,-4.9843 -1.617,-7.9687 v -4.4297 c 0,-3.0313 0.531,-5.7188 1.594,-8.06251 1.062,-2.34375 2.586,-4.14844 4.57,-5.41407 2,-1.28125 4.297,-1.92187 6.89,-1.92187 3.657,0 6.54,0.99219 8.649,2.97656 2.125,1.96875 3.359,4.69531 3.703,8.17969 h -2.906 c -0.719,-5.79687 -3.867,-8.69531 -9.446,-8.69531 -3.093,0 -5.562,1.15625 -7.406,3.46875 -1.828,2.3125 -2.742,5.50786 -2.742,9.58596 v 4.1719 c 0,3.9374 0.891,7.0781 2.672,9.4218 1.797,2.3438 4.219,3.5156 7.266,3.5156 3.015,0 5.289,-0.7187 6.82,-2.1562 1.531,-1.4531 2.476,-3.625 2.836,-6.5156 z m 14.695,-5.3672 h -4.687 v 16.0078 h -2.883 v -34.125 h 2.883 v 15.6562 h 4.547 l 13.195,-15.6562 h 3.633 l -14.016,16.7812 15.047,17.3438 h -3.586 z m 45.399,-18.1172 h 2.883 v 34.125 h -2.883 V 5.41407 l -19.43,29.20312 h -2.906 v -34.125 h 2.906 v 29.1797 z m 37.406,31.6875 h 3.633 l -0.024,10.7109 h -2.882 v -8.2734 h -25.735 v 8.2734 h -2.883 v -10.7109 h 2.274 c 1.734,-1.8125 3.133,-4.4531 4.195,-7.9219 1.078,-3.4844 1.727,-7.2968 1.946,-11.4375 l 0.609,-12.3281 h 18.867 z m -22.266,0 h 19.383 V 2.95313 h -13.219 l -0.468,9.77346 c -0.203,4.0625 -0.805,7.8047 -1.805,11.2265 -0.984,3.4219 -2.281,6.1641 -3.891,8.2266 z m 39.446,-13.5703 h -4.688 v 16.0078 h -2.883 v -34.125 h 2.883 v 15.6562 h 4.547 l 13.195,-15.6562 h 3.633 l -14.015,16.7812 15.046,17.3438 h -3.585 z m 34.359,3.75 9.703,-21.8672 h 3.399 l -13.196,28.5703 -0.843,1.6172 c -1.657,2.9531 -4.094,4.4297 -7.313,4.4297 -0.953,0 -1.687,-0.086 -2.203,-0.2578 l 0.258,-2.3438 c 0.328,0.1094 0.984,0.1641 1.969,0.1641 1.937,0 3.492,-0.9922 4.664,-2.9766 l 0.586,-1.0547 1.476,-3.0468 -12.914,-25.1016 h 3.305 z m 42.375,12.2578 h -2.812 v -30.75 l -9.282,3.44531 v -2.625 l 11.625,-4.3125 h 0.469 z m 34.149,-14.2266 c 0,4.8125 -0.883,8.4688 -2.649,10.9688 -1.766,2.4844 -4.367,3.7266 -7.805,3.7266 -3.375,0 -5.961,-1.2188 -7.757,-3.6563 -1.797,-2.4531 -2.719,-6.0156 -2.766,-10.6875 v -6.1172 c 0,-4.7969 0.891,-8.42968 2.672,-10.89842 1.781,-2.46875 4.383,-3.70313 7.805,-3.70313 3.375,0 5.953,1.19531 7.734,3.58594 1.781,2.375 2.703,5.88281 2.766,10.52341 z m -2.813,-6.1172 c 0,-3.9062 -0.641,-6.85932 -1.922,-8.85932 -1.265,-2 -3.187,-3 -5.765,-3 -2.532,0 -4.438,0.97656 -5.719,2.92968 -1.281,1.95313 -1.938,4.83594 -1.969,8.64844 v 6.7031 c 0,3.8907 0.656,6.8672 1.969,8.9297 1.328,2.0625 3.25,3.0938 5.765,3.0938 2.5,0 4.391,-1.0078 5.672,-3.0235 1.297,-2.0156 1.953,-4.9687 1.969,-8.8593 z m 8.203,-7.2187 c 0,-2.03125 0.625,-3.71094 1.875,-5.03906 C 1178.578,0.67188 1180.179,0 1182.117,0 c 1.937,0 3.531,0.67188 4.781,2.01563 1.266,1.32812 1.899,3.05468 1.899,5.17968 v 1.66407 c 0,2.00001 -0.625,3.67191 -1.875,5.01561 -1.235,1.3281 -2.821,1.9922 -4.758,1.9922 -1.922,0 -3.524,-0.6562 -4.805,-1.9688 -1.281,-1.3124 -1.922,-3.0468 -1.922,-5.20308 z m 2.274,1.80469 c 0,1.45311 0.398,2.64841 1.195,3.58591 0.812,0.9375 1.898,1.4063 3.258,1.4063 1.328,0 2.383,-0.4688 3.164,-1.4063 0.797,-0.9531 1.195,-2.1797 1.195,-3.67966 V 7.05469 c 0,-1.45312 -0.406,-2.64844 -1.219,-3.58594 -0.812,-0.95312 -1.875,-1.42968 -3.187,-1.42968 -1.297,0 -2.359,0.46874 -3.188,1.40624 -0.812,0.9375 -1.218,2.1875 -1.218,3.75 z m 14.906,17.39061 c 0,-2.0312 0.625,-3.7109 1.875,-5.039 1.266,-1.3282 2.859,-1.9922 4.781,-1.9922 1.922,0 3.516,0.664 4.781,1.9922 1.282,1.3124 1.922,3.0468 1.922,5.2031 v 1.664 c 0,2.0313 -0.633,3.711 -1.898,5.0391 -1.25,1.3281 -2.836,1.9922 -4.758,1.9922 -1.922,0 -3.523,-0.6563 -4.805,-1.9688 -1.265,-1.3281 -1.898,-3.0546 -1.898,-5.1796 z m 2.25,1.8281 c 0,1.4688 0.398,2.6719 1.195,3.6094 0.813,0.9375 1.899,1.4063 3.258,1.4063 1.344,0 2.406,-0.4688 3.188,-1.4063 0.796,-0.9531 1.195,-2.1953 1.195,-3.7265 v -1.711 c 0,-1.5 -0.406,-2.7031 -1.219,-3.6094 -0.797,-0.9218 -1.867,-1.3828 -3.211,-1.3828 -1.312,0 -2.375,0.461 -3.187,1.3828 -0.813,0.9219 -1.219,2.1563 -1.219,3.7032 z m -11.813,3.7032 -1.757,-1.125 16.664,-26.67191 1.757,1.125 z m 56.555,-12.6094 -16.664,-7.1016 V 9.1875 l 19.805,8.85939 v 2.2734 l -19.805,8.8828 v -2.9062 z m 24.891,0 -16.664,-7.1016 V 9.1875 l 19.804,8.85939 v 2.2734 l -19.804,8.8828 v -2.9062 z m 24.89,0 -16.66,-7.1016 V 9.1875 l 19.8,8.85939 v 2.2734 l -19.8,8.8828 v -2.9062 z m 46.5,15.4453 h -2.88 V 2.95313 h -19.32 v 31.66406 h -2.88 v -34.125 h 25.08 z m 34.01,-15.2109 c 0,3.1406 -0.55,5.8984 -1.64,8.2734 -1.08,2.375 -2.63,4.2031 -4.64,5.4844 -2.02,1.2812 -4.35,1.9219 -6.99,1.9219 -3.98,0 -7.2,-1.4219 -9.65,-4.2657 -2.46,-2.8593 -3.68,-6.7109 -3.68,-11.5547 v -3.5156 c 0,-3.1094 0.54,-5.8594 1.64,-8.24999 1.11,-2.40625 2.67,-4.25 4.68,-5.53125 2.02,-1.29687 4.34,-1.94531 6.97,-1.94531 2.62,0 4.93,0.63281 6.93,1.89844 2.02,1.26562 3.57,3.05468 4.67,5.36719 1.09,2.3125 1.66,4.99222 1.71,8.03902 z m -2.88,-3.7032 c 0,-4.1093 -0.93,-7.32809 -2.79,-9.65621 -1.86,-2.32813 -4.41,-3.49219 -7.64,-3.49219 -3.18,0 -5.71,1.17188 -7.6,3.51562 -1.87,2.32813 -2.81,5.58598 -2.81,9.77348 v 3.5625 c 0,4.0468 0.94,7.2578 2.81,9.6328 1.88,2.3593 4.42,3.539 7.64,3.539 3.27,0 5.82,-1.164 7.64,-3.4921 1.83,-2.3438 2.75,-5.6016 2.75,-9.7735 z m 34.4,-15.2109 v 34.125 h -2.88 V 2.95313 h -14.42 l -0.79,14.10936 c -0.31,5.0469 -0.8,8.7188 -1.46,11.0156 -0.64,2.2813 -1.56,3.9375 -2.76,4.9688 -1.19,1.0156 -2.81,1.5391 -4.85,1.5703 h -1.22 v -2.4375 l 0.94,-0.0234 c 1.61,-0.0782 2.82,-0.586 3.63,-1.5235 0.81,-0.9375 1.44,-2.4531 1.87,-4.5468 0.46,-2.1094 0.81,-5.3594 1.06,-9.75 l 0.84,-15.8438 z m 20.09,21.8672 9.7,-21.8672 h 3.4 l -13.2,28.5703 -0.84,1.6172 c -1.66,2.9531 -4.09,4.4297 -7.31,4.4297 -0.96,0 -1.69,-0.086 -2.21,-0.2578 l 0.26,-2.3438 c 0.33,0.1094 0.99,0.1641 1.97,0.1641 1.94,0 3.49,-0.9922 4.67,-2.9766 l 0.58,-1.0547 1.48,-3.0468 -12.92,-25.1016 h 3.31 z m 42.02,-21.8672 v 34.125 h -2.91 v -15.5156 c -3.2,0.8906 -6.28,1.3359 -9.23,1.3359 -3.87,0 -6.73,-0.8359 -8.58,-2.5078 -1.84,-1.6719 -2.79,-4.2422 -2.83,-7.7109 v -9.7266 h 2.9 v 9.5625 c 0.02,2.7656 0.7,4.7813 2.04,6.0469 1.36,1.25 3.52,1.875 6.47,1.875 2.98,0 6.06,-0.4453 9.23,-1.336 V 0.49219 Z m 31.13,0 h 2.88 v 34.125 h -2.88 V 5.41407 l -19.43,29.20312 h -2.91 v -34.125 h 2.91 v 29.1797 z m 34.1,2.46094 h -11.7 v 31.66406 h -2.88 V 2.95313 h -11.67 V 0.49219 h 26.25 z m 8.65,12.35156 h 8.46 c 2.32,0 4.34,0.3906 6.04,1.1719 1.71,0.7656 3,1.875 3.89,3.3281 0.91,1.4375 1.36,3.1406 1.36,5.1094 0,3.0156 -1,5.3906 -3.02,7.125 -2.02,1.7187 -4.8,2.5781 -8.37,2.5781 h -11.25 v -34.125 h 2.89 z m 0,2.4609 v 14.4141 h 8.43 c 2.64,0 4.71,-0.6484 6.19,-1.9453 1.49,-1.3125 2.23,-3.1016 2.23,-5.3672 0,-2.1562 -0.72,-3.8672 -2.16,-5.1328 -1.44,-1.2813 -3.45,-1.9375 -6.05,-1.9688 z m 62.48,6.211 c -0.39,3.5937 -1.68,6.3437 -3.87,8.25 -2.17,1.9062 -5.07,2.8594 -8.69,2.8594 -2.53,0 -4.78,-0.6329 -6.73,-1.8985 -1.94,-1.2656 -3.44,-3.0547 -4.5,-5.3672 -1.06,-2.3281 -1.6,-4.9843 -1.62,-7.9687 v -4.4297 c 0,-3.0313 0.54,-5.7188 1.6,-8.06251 1.06,-2.34375 2.58,-4.14844 4.57,-5.41407 2,-1.28125 4.3,-1.92187 6.89,-1.92187 3.65,0 6.54,0.99219 8.65,2.97656 2.12,1.96875 3.36,4.69531 3.7,8.17969 h -2.91 c -0.71,-5.79687 -3.86,-8.69531 -9.44,-8.69531 -3.09,0 -5.56,1.15625 -7.41,3.46875 -1.83,2.3125 -2.74,5.50786 -2.74,9.58596 v 4.1719 c 0,3.9374 0.89,7.0781 2.67,9.4218 1.8,2.3438 4.22,3.5156 7.27,3.5156 3.01,0 5.29,-0.7187 6.82,-2.1562 1.53,-1.4531 2.47,-3.625 2.83,-6.5156 z m 14.7,-5.3672 h -4.69 v 16.0078 h -2.88 v -34.125 h 2.88 v 15.6562 h 4.55 l 13.19,-15.6562 h 3.63 l -14.01,16.7812 15.04,17.3438 h -3.58 z m 45.39,-18.1172 h 2.89 v 34.125 h -2.89 V 5.41407 l -19.43,29.20312 h -2.9 v -34.125 h 2.9 v 29.1797 z m 37.41,31.6875 h 3.63 l -0.02,10.7109 h -2.88 v -8.2734 h -25.74 v 8.2734 h -2.88 v -10.7109 h 2.27 c 1.74,-1.8125 3.14,-4.4531 4.2,-7.9219 1.08,-3.4844 1.72,-7.2968 1.94,-11.4375 l 0.61,-12.3281 h 18.87 z m -22.27,0 h 19.39 V 2.95313 h -13.22 l -0.47,9.77346 c -0.2,4.0625 -0.8,7.8047 -1.8,11.2265 -0.99,3.4219 -2.29,6.1641 -3.9,8.2266 z m 39.45,-13.5703 h -4.69 v 16.0078 H 1707 v -34.125 h 2.88 v 15.6562 h 4.55 l 13.19,-15.6562 h 3.64 l -14.02,16.7812 15.05,17.3438 h -3.59 z m 34.36,3.75 9.7,-21.8672 h 3.4 l -13.19,28.5703 -0.85,1.6172 c -1.65,2.9531 -4.09,4.4297 -7.31,4.4297 -0.95,0 -1.69,-0.086 -2.2,-0.2578 l 0.25,-2.3438 c 0.33,0.1094 0.99,0.1641 1.97,0.1641 1.94,0 3.49,-0.9922 4.67,-2.9766 l 0.58,-1.0547 1.48,-3.0468 -12.91,-25.1016 h 3.3 z m 42.37,12.2578 h -2.81 v -30.75 l -9.28,3.44531 v -2.625 l 11.63,-4.3125 h 0.46 z m 34.15,-14.2266 c 0,4.8125 -0.88,8.4688 -2.65,10.9688 -1.76,2.4844 -4.36,3.7266 -7.8,3.7266 -3.38,0 -5.96,-1.2188 -7.76,-3.6563 -1.79,-2.4531 -2.72,-6.0156 -2.76,-10.6875 v -6.1172 c 0,-4.7969 0.89,-8.42968 2.67,-10.89842 1.78,-2.46875 4.38,-3.70313 7.8,-3.70313 3.38,0 5.96,1.19531 7.74,3.58594 1.78,2.375 2.7,5.88281 2.76,10.52341 z m -2.81,-6.1172 c 0,-3.9062 -0.64,-6.85932 -1.92,-8.85932 -1.27,-2 -3.19,-3 -5.77,-3 -2.53,0 -4.43,0.97656 -5.72,2.92968 -1.28,1.95313 -1.93,4.83594 -1.96,8.64844 v 6.7031 c 0,3.8907 0.65,6.8672 1.96,8.9297 1.33,2.0625 3.25,3.0938 5.77,3.0938 2.5,0 4.39,-1.0078 5.67,-3.0235 1.3,-2.0156 1.95,-4.9687 1.97,-8.8593 z m 8.2,-7.2187 c 0,-2.03125 0.63,-3.71094 1.88,-5.03906 C 1833.98,0.67188 1835.59,0 1837.52,0 c 1.94,0 3.53,0.67188 4.78,2.01563 1.27,1.32812 1.9,3.05468 1.9,5.17968 v 1.66407 c 0,2.00001 -0.62,3.67191 -1.87,5.01561 -1.24,1.3281 -2.82,1.9922 -4.76,1.9922 -1.92,0 -3.52,-0.6562 -4.8,-1.9688 -1.29,-1.3124 -1.93,-3.0468 -1.93,-5.20308 z m 2.28,1.80469 c 0,1.45311 0.4,2.64841 1.19,3.58591 0.81,0.9375 1.9,1.4063 3.26,1.4063 1.33,0 2.38,-0.4688 3.16,-1.4063 0.8,-0.9531 1.2,-2.1797 1.2,-3.67966 V 7.05469 c 0,-1.45312 -0.41,-2.64844 -1.22,-3.58594 -0.81,-0.95312 -1.87,-1.42968 -3.19,-1.42968 -1.29,0 -2.36,0.46874 -3.18,1.40624 -0.82,0.9375 -1.22,2.1875 -1.22,3.75 z m 14.9,17.39061 c 0,-2.0312 0.63,-3.7109 1.88,-5.039 1.26,-1.3282 2.86,-1.9922 4.78,-1.9922 1.92,0 3.51,0.664 4.78,1.9922 1.28,1.3124 1.92,3.0468 1.92,5.2031 v 1.664 c 0,2.0313 -0.63,3.711 -1.9,5.0391 -1.25,1.3281 -2.83,1.9922 -4.75,1.9922 -1.93,0 -3.53,-0.6563 -4.81,-1.9688 -1.26,-1.3281 -1.9,-3.0546 -1.9,-5.1796 z m 2.25,1.8281 c 0,1.4688 0.4,2.6719 1.2,3.6094 0.81,0.9375 1.9,1.4063 3.26,1.4063 1.34,0 2.4,-0.4688 3.18,-1.4063 0.8,-0.9531 1.2,-2.1953 1.2,-3.7265 v -1.711 c 0,-1.5 -0.41,-2.7031 -1.22,-3.6094 -0.8,-0.9218 -1.87,-1.3828 -3.21,-1.3828 -1.31,0 -2.38,0.461 -3.19,1.3828 -0.81,0.9219 -1.22,2.1563 -1.22,3.7032 z m -11.81,3.7032 -1.76,-1.125 16.67,-26.67191 1.75,1.125 z m 38.11,-31.2891 h 2.74 l 14.25,37.0547 h -2.74 z m 18.94,0 h 2.74 l 14.25,37.0547 h -2.74 z m 18.94,0 h 2.74 l 14.25,37.0547 h -2.75 z m 18.93,0 h 2.74 l 14.25,37.0547 h -2.74 z m 18.94,0 h 2.74 l 14.25,37.0547 h -2.74 z"
     fill="#590d56"
     id="path10" />
</svg>
