<?xml version="1.0" encoding="UTF-8" standalone="no"?>
<svg
   width="67.9617"
   height="80.351738"
   viewBox="0 0 67.9617 80.351738"
   fill="none"
   version="1.1"
   id="svg10342"
   sodipodi:docname="location.svg"
   inkscape:version="1.2.1 (9c6d41e410, 2022-07-14)"
   xmlns:inkscape="http://www.inkscape.org/namespaces/inkscape"
   xmlns:sodipodi="http://sodipodi.sourceforge.net/DTD/sodipodi-0.dtd"
   xmlns="http://www.w3.org/2000/svg"
   xmlns:svg="http://www.w3.org/2000/svg">
  <defs
     id="defs10346" />
  <sodipodi:namedview
     id="namedview10344"
     pagecolor="#ffffff"
     bordercolor="#000000"
     borderopacity="0.25"
     inkscape:showpageshadow="2"
     inkscape:pageopacity="0.0"
     inkscape:pagecheckerboard="0"
     inkscape:deskcolor="#d1d1d1"
     showgrid="false"
     inkscape:zoom="2.9135802"
     inkscape:cx="34.665255"
     inkscape:cy="41.014831"
     inkscape:window-width="2160"
     inkscape:window-height="1330"
     inkscape:window-x="-12"
     inkscape:window-y="-12"
     inkscape:window-maximized="1"
     inkscape:current-layer="svg10342" />
  <path
     style="color:#000000;fill:#47093e;-inkscape-stroke:none"
     d="M 33.980469,0 C 29.066021,0 24.394598,1.0443095 20.176094,2.9230328 8.2902876,8.2164118 0,20.133814 0,33.980469 c 0,4.706013 2.1137379,9.920191 5.3085937,15.162109 3.1881952,5.230901 7.4314863,10.434431 11.6816403,15.060547 4.248452,4.624112 8.495201,8.659373 11.681641,11.541016 1.59288,1.44058 2.920395,2.591389 3.849609,3.382812 0.464562,0.395715 0.829215,0.701449 1.078125,0.908203 0.02128,0.01763 0.04228,0.03599 0.0625,0.05273 l 0.31836,0.263671 0.318359,-0.263671 c 0.01958,-0.01622 0.04064,-0.03462 0.0625,-0.05273 h 0.002 c 0.248961,-0.206796 0.613591,-0.512511 1.078125,-0.908203 0.929215,-0.791423 2.256636,-1.942238 3.84961,-3.382812 3.18644,-2.881643 7.431333,-6.916901 11.679687,-11.541016 4.250258,-4.626119 8.493475,-9.829645 11.681641,-15.060547 3.194833,-5.241915 5.308593,-10.45609 5.308593,-15.162109 C 67.960938,15.219366 52.74167,0 33.980469,0 Z m 0,1 c 10.461895,0 19.782763,4.8659584 25.823862,12.459077 4.480267,5.631292 7.156606,12.762568 7.156606,20.521392 0,4.403372 -2.019349,9.486103 -5.162109,14.642578 -3.136228,5.145687 -7.34272,10.309225 -11.564453,14.904297 -4.219837,4.593076 -8.445481,8.608057 -11.615234,11.474609 -1.584624,1.433023 -2.903589,2.577506 -3.826172,3.363281 -0.350176,0.298281 -0.584177,0.492808 -0.8125,0.683594 C 33.752137,78.858056 33.519958,78.663397 33.169922,78.365234 32.247339,77.579459 30.926314,76.43497 29.341797,75.001953 26.172044,72.135401 21.946502,68.120423 17.726562,63.527344 13.504926,58.932269 9.300321,53.768735 6.1640625,48.623047 3.0212847,43.466575 1,38.383846 1,33.980469 1,15.759808 15.759808,1 33.980469,1 Z"
     id="path966"
     sodipodi:nodetypes="ssscccccccccccccccsssscccccccccss" />
  <path
     style="color:#000000;fill:#47093e;stroke-linejoin:bevel;-inkscape-stroke:none"
     d="m 34.132812,22.0625 -9.505859,24.712891 0.933594,0.359375 9.037109,-23.501954 9.039063,23.501954 0.933593,-0.359375 L 35.064453,22.0625 Z"
     id="path897" />
  <path
     style="color:#000000;fill:#47093e;stroke-linejoin:bevel;-inkscape-stroke:none"
     d="m 27.894531,38.351562 v 1 h 13.40625 v -1 z"
     id="path10340" />
</svg>
