<?xml version="1.0" encoding="UTF-8" standalone="no"?>
<svg
   width="68"
   height="68"
   viewBox="0 0 68 68"
   fill="none"
   version="1.1"
   id="svg3070"
   sodipodi:docname="btn-left.svg"
   inkscape:version="1.2.1 (9c6d41e410, 2022-07-14)"
   xmlns:inkscape="http://www.inkscape.org/namespaces/inkscape"
   xmlns:sodipodi="http://sodipodi.sourceforge.net/DTD/sodipodi-0.dtd"
   xmlns="http://www.w3.org/2000/svg"
   xmlns:svg="http://www.w3.org/2000/svg">
  <defs
     id="defs3074" />
  <sodipodi:namedview
     id="namedview3072"
     pagecolor="#ffffff"
     bordercolor="#000000"
     borderopacity="0.25"
     inkscape:showpageshadow="2"
     inkscape:pageopacity="0.0"
     inkscape:pagecheckerboard="0"
     inkscape:deskcolor="#d1d1d1"
     showgrid="false"
     inkscape:zoom="3.4705882"
     inkscape:cx="34"
     inkscape:cy="34.144068"
     inkscape:window-width="2160"
     inkscape:window-height="1330"
     inkscape:window-x="-12"
     inkscape:window-y="-12"
     inkscape:window-maximized="1"
     inkscape:current-layer="svg3070" />
  <path
     style="color:#000000;fill:#ffffff;-inkscape-stroke:none"
     d="M 34,0 C 15.228314,0 0,15.228314 0,34 0,52.771686 15.228314,68 34,68 52.771686,68 68,52.771686 68,34 68,15.228314 52.771686,0 34,0 Z m 0,1 C 52.231246,1 67,15.768754 67,34 67,52.231246 52.231246,67 34,67 15.768754,67 1,52.231246 1,34 1,15.768754 15.768754,1 34,1 Z"
     id="circle3066"
     transform="rotate(-180 33.9999 33.9999)" />
  <path
     style="color:#000000;fill:#ffffff;-inkscape-stroke:none"
     d="M 37.726562,20.046875 23.773437,34 37.726562,47.953125 38.433594,47.246094 25.1875,34 38.433594,20.753906 Z"
     id="path3068" />
</svg>
