<svg width="124" height="123" viewBox="0 0 124 123" fill="none" xmlns="http://www.w3.org/2000/svg">
<path fill-rule="evenodd" clip-rule="evenodd" d="M73.601 7.42899L62 0.00756836L50.3989 7.42899L36.7823 5.36775L29.2028 16.8661L15.925 20.5215L13.6776 34.1086L3.03445 42.8485L6.50773 56.1751L0.3396 68.4883L8.93301 79.2501L8.30638 93.0076L20.534 99.3436L25.5573 112.167L39.3049 112.981L49.1094 122.653L62 117.805L74.8905 122.653L84.695 112.981L98.4426 112.167L103.466 99.3436L115.694 93.0076L115.067 79.2501L123.66 68.4883L117.492 56.1751L120.965 42.8485L110.322 34.1086L108.075 20.5215L94.7971 16.8661L87.2176 5.36775L73.601 7.42899ZM86.7348 6.45223L73.3789 8.47401L62 1.19468L50.621 8.47401L37.2651 6.45223L29.8307 17.7304L16.8072 21.3158L14.6028 34.6428L4.16347 43.2154L7.57024 56.2868L1.52021 68.3643L9.94908 78.9199L9.33445 92.414L21.328 98.6288L26.255 111.206L39.7395 112.005L49.3562 121.492L62 116.737L74.6437 121.492L84.2605 112.005L97.7449 111.206L102.672 98.6288L114.665 92.414L114.051 78.9199L122.48 68.3643L116.43 56.2868L119.836 43.2154L109.397 34.6428L107.193 21.3158L94.1692 17.7304L86.7348 6.45223Z" fill="white"/>
</svg>
